<svg width="309" height="217" viewBox="0 0 309 217" fill="none" xmlns="http://www.w3.org/2000/svg">
<rect x="0.707764" width="307.99" height="217" rx="41.7128" fill="white"/>
<path d="M66.4898 132.572C61.1433 132.572 56.4259 131.437 52.3374 129.165C48.249 126.859 45.0516 123.662 42.7453 119.573C40.4739 115.485 39.3383 110.767 39.3383 105.421V81.0999C39.3383 75.7535 40.4739 71.036 42.7453 66.9476C45.0516 62.8591 48.249 59.6792 52.3374 57.4078C56.4259 55.1015 61.1433 53.9484 66.4898 53.9484C71.8362 53.9484 76.5362 55.1015 80.5897 57.4078C84.6782 59.6792 87.8755 62.8591 90.1818 66.9476C92.4881 71.036 93.6413 75.7535 93.6413 81.0999V105.421C93.6413 110.767 92.4881 115.485 90.1818 119.573C87.8755 123.662 84.6782 126.859 80.5897 129.165C76.5362 131.437 71.8362 132.572 66.4898 132.572ZM66.4898 120.569C69.1455 120.569 71.5567 119.94 73.7232 118.682C75.8897 117.389 77.602 115.677 78.86 113.545C80.118 111.379 80.747 108.968 80.747 106.312V80.1564C80.747 77.4657 80.118 75.0546 78.86 72.923C77.602 70.7565 75.8897 69.0442 73.7232 67.7862C71.5567 66.4933 69.1455 65.8468 66.4898 65.8468C63.834 65.8468 61.4229 66.4933 59.2564 67.7862C57.0898 69.0442 55.3776 70.7565 54.1196 72.923C52.8616 75.0546 52.2326 77.4657 52.2326 80.1564V106.312C52.2326 108.968 52.8616 111.379 54.1196 113.545C55.3776 115.677 57.0898 117.389 59.2564 118.682C61.4229 119.94 63.834 120.569 66.4898 120.569ZM121.443 131V69.3063L107.291 77.9549V64.0123L121.443 55.5209H134.337V131H121.443ZM181.457 132.572C176.111 132.572 171.393 131.437 167.305 129.165C163.216 126.859 160.019 123.662 157.713 119.573C155.441 115.485 154.306 110.767 154.306 105.421V81.0999C154.306 75.7535 155.441 71.036 157.713 66.9476C160.019 62.8591 163.216 59.6792 167.305 57.4078C171.393 55.1015 176.111 53.9484 181.457 53.9484C186.804 53.9484 191.503 55.1015 195.557 57.4078C199.645 59.6792 202.843 62.8591 205.149 66.9476C207.455 71.036 208.609 75.7535 208.609 81.0999V105.421C208.609 110.767 207.455 115.485 205.149 119.573C202.843 123.662 199.645 126.859 195.557 129.165C191.503 131.437 186.804 132.572 181.457 132.572ZM181.457 120.569C184.113 120.569 186.524 119.94 188.69 118.682C190.857 117.389 192.569 115.677 193.827 113.545C195.085 111.379 195.714 108.968 195.714 106.312V80.1564C195.714 77.4657 195.085 75.0546 193.827 72.923C192.569 70.7565 190.857 69.0442 188.69 67.7862C186.524 66.4933 184.113 65.8468 181.457 65.8468C178.801 65.8468 176.39 66.4933 174.224 67.7862C172.057 69.0442 170.345 70.7565 169.087 72.923C167.829 75.0546 167.2 77.4657 167.2 80.1564V106.312C167.2 108.968 167.829 111.379 169.087 113.545C170.345 115.677 172.057 117.389 174.224 118.682C176.39 119.94 178.801 120.569 181.457 120.569ZM227.133 131L253.131 67.4717H220.161V55.5209H266.654V67.4717L240.761 131H227.133Z" fill="#212731"/>
<path d="M42.68 178V160.72H53.648V162.748H44.816V167.344H49.508C49.676 167.344 49.876 167.352 50.108 167.368C50.34 167.376 50.564 167.396 50.78 167.428C51.692 167.54 52.464 167.844 53.096 168.34C53.736 168.828 54.22 169.448 54.548 170.2C54.884 170.952 55.052 171.776 55.052 172.672C55.052 173.56 54.888 174.38 54.56 175.132C54.232 175.884 53.748 176.508 53.108 177.004C52.476 177.492 51.7 177.796 50.78 177.916C50.564 177.94 50.34 177.96 50.108 177.976C49.876 177.992 49.676 178 49.508 178H42.68ZM44.816 175.972H49.436C49.588 175.972 49.76 175.964 49.952 175.948C50.152 175.932 50.34 175.908 50.516 175.876C51.348 175.708 51.948 175.312 52.316 174.688C52.684 174.056 52.868 173.384 52.868 172.672C52.868 171.944 52.684 171.272 52.316 170.656C51.948 170.032 51.348 169.636 50.516 169.468C50.34 169.428 50.152 169.404 49.952 169.396C49.76 169.38 49.588 169.372 49.436 169.372H44.816V175.972ZM63.0616 178.36C61.7896 178.36 60.6776 178.08 59.7256 177.52C58.7816 176.952 58.0456 176.164 57.5176 175.156C56.9896 174.14 56.7256 172.956 56.7256 171.604C56.7256 170.188 56.9856 168.964 57.5056 167.932C58.0256 166.892 58.7496 166.092 59.6776 165.532C60.6136 164.964 61.7096 164.68 62.9656 164.68C64.2696 164.68 65.3776 164.98 66.2896 165.58C67.2096 166.18 67.8976 167.036 68.3536 168.148C68.8176 169.26 69.0176 170.584 68.9536 172.12H66.7936V171.352C66.7696 169.76 66.4456 168.572 65.8216 167.788C65.1976 166.996 64.2696 166.6 63.0376 166.6C61.7176 166.6 60.7136 167.024 60.0256 167.872C59.3376 168.72 58.9936 169.936 58.9936 171.52C58.9936 173.048 59.3376 174.232 60.0256 175.072C60.7136 175.912 61.6936 176.332 62.9656 176.332C63.8216 176.332 64.5656 176.136 65.1976 175.744C65.8296 175.352 66.3256 174.788 66.6856 174.052L68.7376 174.76C68.2336 175.904 67.4736 176.792 66.4576 177.424C65.4496 178.048 64.3176 178.36 63.0616 178.36ZM58.2736 172.12V170.404H67.8496V172.12H58.2736ZM77.0853 178.36C75.7733 178.36 74.6573 178.068 73.7373 177.484C72.8253 176.892 72.1293 176.08 71.6493 175.048C71.1693 174.016 70.9213 172.84 70.9053 171.52C70.9213 170.168 71.1733 168.98 71.6613 167.956C72.1573 166.924 72.8653 166.12 73.7853 165.544C74.7053 164.968 75.8133 164.68 77.1093 164.68C78.4773 164.68 79.6533 165.016 80.6373 165.688C81.6293 166.36 82.2933 167.28 82.6293 168.448L80.5173 169.084C80.2453 168.332 79.8013 167.748 79.1853 167.332C78.5773 166.916 77.8773 166.708 77.0853 166.708C76.1973 166.708 75.4653 166.916 74.8893 167.332C74.3133 167.74 73.8853 168.308 73.6053 169.036C73.3253 169.756 73.1813 170.584 73.1733 171.52C73.1893 172.96 73.5213 174.124 74.1693 175.012C74.8253 175.892 75.7973 176.332 77.0853 176.332C77.9333 176.332 78.6373 176.14 79.1973 175.756C79.7573 175.364 80.1813 174.8 80.4693 174.064L82.6293 174.628C82.1813 175.836 81.4813 176.76 80.5293 177.4C79.5773 178.04 78.4293 178.36 77.0853 178.36ZM85.0664 178V165.04H95.6864V178H93.5504V167.068H87.2024V178H85.0664ZM97.8472 178V176.164C98.3272 176.252 98.6912 176.236 98.9392 176.116C99.1952 175.988 99.3832 175.768 99.5032 175.456C99.6312 175.136 99.7352 174.736 99.8152 174.256C99.9512 173.496 100.067 172.648 100.163 171.712C100.267 170.776 100.359 169.752 100.439 168.64C100.527 167.52 100.607 166.32 100.679 165.04H109.739V178H107.603V167.068H102.623C102.575 167.804 102.515 168.56 102.443 169.336C102.379 170.112 102.311 170.868 102.239 171.604C102.167 172.332 102.087 173.012 101.999 173.644C101.919 174.268 101.831 174.808 101.735 175.264C101.583 176.048 101.371 176.676 101.099 177.148C100.827 177.612 100.435 177.912 99.9232 178.048C99.4112 178.192 98.7192 178.176 97.8472 178ZM116.794 178.36C115.826 178.36 115.014 178.184 114.358 177.832C113.71 177.472 113.218 177 112.882 176.416C112.554 175.832 112.39 175.192 112.39 174.496C112.39 173.816 112.518 173.228 112.774 172.732C113.038 172.228 113.406 171.812 113.878 171.484C114.35 171.148 114.914 170.884 115.57 170.692C116.186 170.524 116.874 170.38 117.634 170.26C118.402 170.132 119.178 170.016 119.962 169.912C120.746 169.808 121.478 169.708 122.158 169.612L121.39 170.056C121.414 168.904 121.182 168.052 120.694 167.5C120.214 166.948 119.382 166.672 118.198 166.672C117.414 166.672 116.726 166.852 116.134 167.212C115.55 167.564 115.138 168.14 114.898 168.94L112.87 168.328C113.182 167.192 113.786 166.3 114.682 165.652C115.578 165.004 116.758 164.68 118.222 164.68C119.398 164.68 120.406 164.892 121.246 165.316C122.094 165.732 122.702 166.364 123.07 167.212C123.254 167.612 123.37 168.048 123.418 168.52C123.466 168.984 123.49 169.472 123.49 169.984V178H121.594V174.892L122.038 175.18C121.55 176.228 120.866 177.02 119.986 177.556C119.114 178.092 118.05 178.36 116.794 178.36ZM117.118 176.572C117.886 176.572 118.55 176.436 119.11 176.164C119.678 175.884 120.134 175.52 120.478 175.072C120.822 174.616 121.046 174.12 121.15 173.584C121.27 173.184 121.334 172.74 121.342 172.252C121.358 171.756 121.366 171.376 121.366 171.112L122.11 171.436C121.414 171.532 120.73 171.624 120.058 171.712C119.386 171.8 118.75 171.896 118.15 172C117.55 172.096 117.01 172.212 116.53 172.348C116.178 172.46 115.846 172.604 115.534 172.78C115.23 172.956 114.982 173.184 114.79 173.464C114.606 173.736 114.514 174.076 114.514 174.484C114.514 174.836 114.602 175.172 114.778 175.492C114.962 175.812 115.242 176.072 115.618 176.272C116.002 176.472 116.502 176.572 117.118 176.572ZM130.042 178V166.984H125.53V165.04H136.69V166.984H132.178V178H130.042ZM138.949 178V165.04H141.085V170.5H147.901V165.04H150.037V178H147.901V172.528H141.085V178H138.949ZM153.399 178L153.387 165.04H155.535V169.732H157.515C157.891 169.732 158.275 169.74 158.667 169.756C159.059 169.772 159.399 169.808 159.687 169.864C160.359 170 160.947 170.228 161.451 170.548C161.955 170.868 162.347 171.3 162.627 171.844C162.907 172.388 163.047 173.064 163.047 173.872C163.047 174.992 162.755 175.88 162.171 176.536C161.595 177.184 160.839 177.616 159.903 177.832C159.583 177.904 159.215 177.952 158.799 177.976C158.391 177.992 158.003 178 157.635 178H153.399ZM155.535 176.236H157.671C157.911 176.236 158.179 176.228 158.475 176.212C158.771 176.196 159.035 176.156 159.267 176.092C159.675 175.972 160.039 175.736 160.359 175.384C160.687 175.032 160.851 174.528 160.851 173.872C160.851 173.208 160.691 172.696 160.371 172.336C160.059 171.976 159.647 171.74 159.135 171.628C158.903 171.572 158.659 171.536 158.403 171.52C158.147 171.504 157.903 171.496 157.671 171.496H155.535V176.236ZM164.535 178V165.04H166.671V178H164.535ZM175.619 163.528C175.019 163.528 174.471 163.38 173.975 163.084C173.479 162.788 173.083 162.396 172.787 161.908C172.491 161.412 172.343 160.86 172.343 160.252H174.071C174.071 160.676 174.223 161.04 174.527 161.344C174.831 161.648 175.195 161.8 175.619 161.8C176.051 161.8 176.415 161.648 176.711 161.344C177.015 161.04 177.167 160.676 177.167 160.252H178.895C178.895 160.86 178.747 161.412 178.451 161.908C178.163 162.396 177.767 162.788 177.263 163.084C176.767 163.38 176.219 163.528 175.619 163.528ZM180.647 165.04V178H178.583V168.448L171.791 178H170.027V165.04H172.091V174.46L178.895 165.04H180.647ZM188.801 178V165.04H190.937V170.5H197.753V165.04H199.889V178H197.753V172.528H190.937V178H188.801ZM208.77 178.36C207.482 178.36 206.37 178.068 205.434 177.484C204.506 176.9 203.79 176.092 203.286 175.06C202.782 174.028 202.53 172.844 202.53 171.508C202.53 170.148 202.786 168.956 203.298 167.932C203.81 166.908 204.534 166.112 205.47 165.544C206.406 164.968 207.506 164.68 208.77 164.68C210.066 164.68 211.182 164.972 212.118 165.556C213.054 166.132 213.77 166.936 214.266 167.968C214.77 168.992 215.022 170.172 215.022 171.508C215.022 172.86 214.77 174.052 214.266 175.084C213.762 176.108 213.042 176.912 212.106 177.496C211.17 178.072 210.058 178.36 208.77 178.36ZM208.77 176.332C210.114 176.332 211.114 175.884 211.77 174.988C212.426 174.092 212.754 172.932 212.754 171.508C212.754 170.044 212.422 168.88 211.758 168.016C211.094 167.144 210.098 166.708 208.77 166.708C207.866 166.708 207.122 166.912 206.538 167.32C205.954 167.728 205.518 168.292 205.23 169.012C204.942 169.732 204.798 170.564 204.798 171.508C204.798 172.964 205.134 174.132 205.806 175.012C206.478 175.892 207.466 176.332 208.77 176.332ZM217.652 178V165.04H219.488L224.408 175.096L229.328 165.04H231.164V178H229.1V169.492L224.972 178H223.844L219.716 169.492V178H217.652ZM240.132 178.36C238.86 178.36 237.748 178.08 236.796 177.52C235.852 176.952 235.116 176.164 234.588 175.156C234.06 174.14 233.796 172.956 233.796 171.604C233.796 170.188 234.056 168.964 234.576 167.932C235.096 166.892 235.82 166.092 236.748 165.532C237.684 164.964 238.78 164.68 240.036 164.68C241.34 164.68 242.448 164.98 243.36 165.58C244.28 166.18 244.968 167.036 245.424 168.148C245.888 169.26 246.088 170.584 246.024 172.12H243.864V171.352C243.84 169.76 243.516 168.572 242.892 167.788C242.268 166.996 241.34 166.6 240.108 166.6C238.788 166.6 237.784 167.024 237.096 167.872C236.408 168.72 236.064 169.936 236.064 171.52C236.064 173.048 236.408 174.232 237.096 175.072C237.784 175.912 238.764 176.332 240.036 176.332C240.892 176.332 241.636 176.136 242.268 175.744C242.9 175.352 243.396 174.788 243.756 174.052L245.808 174.76C245.304 175.904 244.544 176.792 243.528 177.424C242.52 178.048 241.388 178.36 240.132 178.36ZM235.344 172.12V170.404H244.92V172.12H235.344ZM254.648 178.36C253.432 178.36 252.408 178.06 251.576 177.46C250.744 176.852 250.112 176.032 249.68 175C249.256 173.96 249.044 172.796 249.044 171.508C249.044 170.204 249.256 169.036 249.68 168.004C250.112 166.972 250.744 166.16 251.576 165.568C252.416 164.976 253.444 164.68 254.66 164.68C255.86 164.68 256.892 164.98 257.756 165.58C258.628 166.172 259.296 166.984 259.76 168.016C260.224 169.048 260.456 170.212 260.456 171.508C260.456 172.804 260.224 173.968 259.76 175C259.296 176.032 258.628 176.852 257.756 177.46C256.892 178.06 255.856 178.36 254.648 178.36ZM248.684 183.76V165.04H250.592V174.58H250.832V183.76H248.684ZM254.384 176.404C255.24 176.404 255.948 176.188 256.508 175.756C257.068 175.324 257.488 174.74 257.768 174.004C258.048 173.26 258.188 172.428 258.188 171.508C258.188 170.596 258.048 169.772 257.768 169.036C257.496 168.3 257.072 167.716 256.496 167.284C255.928 166.852 255.204 166.636 254.324 166.636C253.484 166.636 252.788 166.844 252.236 167.26C251.684 167.668 251.272 168.24 251 168.976C250.728 169.704 250.592 170.548 250.592 171.508C250.592 172.452 250.724 173.296 250.988 174.04C251.26 174.776 251.676 175.356 252.236 175.78C252.796 176.196 253.512 176.404 254.384 176.404Z" fill="#212731"/>
</svg>
