<svg width="52" height="52" viewBox="0 0 52 52" fill="none" xmlns="http://www.w3.org/2000/svg">
<path fill-rule="evenodd" clip-rule="evenodd" d="M0 10C0 4.47715 4.47715 0 10 0L42 0C47.5228 0 52 4.47715 52 10V34.6667V42C52 47.5228 47.5229 52 42 52H10C4.47715 52 0 47.5228 0 42V17.3333V10Z" fill="#08A652"/>
<path d="M38.35 32.0652V36.9175C38.35 37.6379 37.793 38.2357 37.0745 38.2865C36.4743 38.3289 35.9847 38.35 35.6055 38.35C23.4797 38.35 13.65 28.5202 13.65 16.3944C13.65 16.0153 13.6712 15.5256 13.7136 14.9255C13.7644 14.207 14.3621 13.65 15.0824 13.65H19.9349C20.2871 13.65 20.5821 13.9168 20.6175 14.2672C20.6492 14.5818 20.6787 14.8344 20.706 15.025C20.9836 16.9635 21.5506 18.8087 22.3618 20.5153C22.492 20.7892 22.4071 21.1171 22.1603 21.2934L19.1986 23.409C21.0017 27.6207 24.3792 30.9983 28.591 32.8014L30.7027 29.8448C30.8812 29.5951 31.213 29.5092 31.4902 29.6408C33.1967 30.4513 35.0417 31.0177 36.9799 31.2946C37.1693 31.3217 37.4203 31.351 37.7327 31.3825C38.0832 31.4179 38.35 31.713 38.35 32.0652Z" fill="white"/>
</svg>
