<svg width="1173" height="212" viewBox="0 0 1173 212" fill="none" xmlns="http://www.w3.org/2000/svg">
<path fill-rule="evenodd" clip-rule="evenodd" d="M0 215.665L42.6 183.804C85.2 151.942 170.4 88.2191 255.6 81.5812C340.8 75.6072 426 126.055 511.2 113.443C596.4 100.831 681.6 24.496 766.8 5.24635C852 -14.0033 937.2 24.496 1022.4 43.7457C1107.6 62.3316 1192.8 62.3316 1235.4 62.3316H1278V292H1235.4C1192.8 292 1107.6 292 1022.4 292C937.2 292 852 292 766.8 292C681.6 292 596.4 292 511.2 292C426 292 340.8 292 255.6 292C170.4 292 85.2 292 42.6 292H0V215.665Z" fill="#28303D"/>
</svg>
